#!OML:ASF E:\emotionWalksFemale\Project 1\Capture day 1\Session 1\Female1.ASF
:FULLY-SPECIFIED
:DEGREES
1777
root 10.4618 15.3781 39.9099 0.168843 -18.7503 -360.921
lowerback 9.19641 0.734885 1.82672
upperback -4.67975 1.31863 0.94097
thorax -10.1683 0.547384 -0.253691
lowerneck -11.5044 1.4726 -4.02367
upperneck 9.06669 1.80166 7.30974
head 4.4883 1.20102 3.04929
rclavicle 5.83681e-014 2.78299e-015
rhumerus -46.8033 0.916122 -81.7593
rradius 37.7998
rwrist 19.4986
rhand -11.57 -58.8947
rfingers 7.12502
rthumb 14.4713 -808.37
lclavicle 5.83681e-014 2.78299e-015
lhumerus -47.0938 8.10424 79.0515
lradius 35.7736
lwrist -12.6035
lhand 3.61279 -31.8759
lfingers 7.12502
lthumb 29.046 -4.12007
rfemur -14.4919 -8.60004 24.094
rtibia 47.4572
rfoot -9.6206 -22.6491
rtoes -2.83518
lfemur -1.59033 -21.364 -27.7655
ltibia 23.3212
lfoot -21.6787 18.484
ltoes -25.8031
1778
root 10.467 15.3732 39.923 0.204954 -18.9615 -360.625
lowerback 9.12274 0.795631 1.62019
upperback -4.66243 1.35749 0.803748
thorax -10.1051 0.57534 -0.290292
lowerneck -11.581 1.44269 -3.95185
upperneck 9.00341 1.75894 7.26891
head 4.48537 1.18072 3.02209
rclavicle -2.57178e-014 -1.76918e-014
rhumerus -46.7189 0.737843 -81.7044
rradius 37.8012
rwrist 19.5969
rhand -11.5789 -58.7574
rfingers 7.12502
rthumb 14.4628 -808.233
lclavicle -2.57178e-014 -1.76918e-014
lhumerus -47.3067 7.92142 79.3288
lradius 35.6732
lwrist -12.5421
lhand 3.43398 -31.3827
lfingers 7.12502
lthumb 28.8752 -3.59759
rfemur -14.8766 -8.8961 23.7218
rtibia 47.8572
rfoot -9.2052 -22.4919
rtoes -5.49556
lfemur -1.59494 -21.5025 -28.1445
ltibia 23.2173
lfoot -22.2439 18.0017
ltoes -17.3751
1779
root 10.4709 15.3663 39.9351 0.238619 -19.18 -360.639
lowerback 9.15711 0.880109 1.70251
upperback -4.6299 1.47687 0.743789
thorax -10.0841 0.625315 -0.422174
lowerneck -11.6007 1.35685 -3.88536
upperneck 8.9135 1.64149 7.22819
head 4.46912 1.1223 2.9895
rclavicle -3.55079e-014 -1.53064e-014
rhumerus -46.6541 0.423397 -81.58
rradius 37.7397
rwrist 19.7183
rhand -11.1567 -58.3332
rfingers 7.12502
rthumb 14.8695 -807.78
lclavicle -3.55079e-014 -1.53064e-014
lhumerus -47.5822 7.65457 79.5935
lradius 35.7676
lwrist -12.6531
lhand 3.46526 -31.337
lfingers 7.12502
lthumb 28.9051 -3.55697
rfemur -15.0961 -9.14577 23.6705
rtibia 48.2198
rfoot -9.60764 -22.345
rtoes -4.61366
lfemur -1.538 -21.5912 -28.2194
ltibia 23.1774
lfoot -22.2039 18.2971
ltoes -13.6797
1780
root 10.4736 15.3571 39.9449 0.338892 -19.3856 -360.815
lowerback 9.16979 0.938195 1.84439
upperback -4.61892 1.57783 0.783973
thorax -10.0755 0.66617 -0.476786
lowerneck -11.5798 1.27807 -3.96945
upperneck 8.87596 1.53958 7.32428
head 4.45866 1.0745 3.02557
rclavicle -4.89507e-015 1.19271e-015
rhumerus -46.5812 0.313835 -81.4654
rradius 37.6296
rwrist 19.6988
rhand -10.7403 -58.2132
rfingers 7.12502
rthumb 15.2706 -807.63
lclavicle -4.89507e-015 1.19271e-015
lhumerus -47.9129 7.6092 79.7417
lradius 35.8062
lwrist -12.9905
lhand 3.63747 -31.8244
lfingers 7.12502
lthumb 29.0695 -4.07266
rfemur -15.2977 -9.3128 23.7793
rtibia 48.5825
rfoot -9.30578 -21.9571
rtoes -7.29088
lfemur -1.54247 -21.4398 -28.0709
ltibia 23.1716
lfoot -21.5615 19.1587
ltoes -20.3092
1781
root 10.4746 15.3492 39.9506 0.328554 -19.5467 -360.745
lowerback 9.25628 0.953932 1.71659
upperback -4.60349 1.58129 0.756943
thorax -10.112 0.674977 -0.436148
lowerneck -11.579 1.25361 -3.94231
upperneck 8.84086 1.4966 7.38712
head 4.4502 1.05776 3.03731
rclavicle -8.17502e-015 -6.16232e-015
rhumerus -46.5513 0.422769 -81.5067
rradius 37.7607
rwrist 19.3686
rhand -10.7731 -58.3051
rfingers 7.12502
rthumb 15.239 -807.724
lclavicle -8.17502e-015 -6.16232e-015
lhumerus -48.1265 7.48963 79.8589
lradius 35.6666
lwrist -13.2285
lhand 3.76247 -32.0772
lfingers 7.12502
lthumb 29.1889 -4.34604
rfemur -15.4954 -9.50702 23.6414
rtibia 48.9804
rfoot -10.397 -21.5817
rtoes -3.9998
lfemur -1.52311 -21.1901 -28.1535
ltibia 23.1705
lfoot -21.6622 18.7717
ltoes -16.918
1782
root 10.4762 15.341 39.9542 0.291663 -19.6593 -360.476
lowerback 9.36081 0.944513 1.43844
upperback -4.58683 1.52482 0.668056
thorax -10.1608 0.662496 -0.366952
lowerneck -11.5792 1.21866 -3.97105
upperneck 8.71113 1.44494 7.52603
head 4.41248 1.03854 3.08001
rclavicle 4.3832e-014 2.08724e-014
rhumerus -46.4766 0.543437 -81.5649
rradius 37.9965
rwrist 18.984
rhand -10.6172 -58.4242
rfingers 7.12502
rthumb 15.3893 -807.831
lclavicle 4.3832e-014 2.08724e-014
lhumerus -48.2564 7.23781 80.0708
lradius 35.5942
lwrist -13.2374
lhand 3.98869 -31.8751
lfingers 7.12502
lthumb 29.4049 -4.18175
rfemur -15.7879 -9.81431 23.2976
rtibia 49.4529
rfoot -10.3556 -21.1664
rtoes -7.59618
lfemur -1.49827 -21.0345 -28.4258
ltibia 23.0467
lfoot -21.356 19.1292
ltoes -20.8471
